<svg width="25" height="25" fill="none" xmlns="http://www.w3.org/2000/svg"><path d="M12.746 25h-.249a86.87 86.87 0 01-5.531-.153c-1.614-.098-3.088-.656-4.262-1.613-1.132-.923-1.906-2.172-2.298-3.711-.342-1.34-.36-2.655-.378-3.927-.012-.912-.025-1.994-.028-3.094a273.8 273.8 0 01.028-3.098c.018-1.272.036-2.587.378-3.927.392-1.539 1.166-2.788 2.298-3.711C3.878.809 5.352.25 6.966.153A87.1 87.1 0 0112.502 0c1.96-.004 3.77.046 5.531.153 1.614.098 3.088.656 4.262 1.613 1.133.923 1.906 2.172 2.298 3.71.342 1.34.36 2.656.378 3.928.012.912.026 1.994.028 3.094v.004c-.002 1.1-.016 2.181-.028 3.094-.018 1.272-.035 2.587-.378 3.927-.392 1.539-1.165 2.788-2.298 3.711-1.174.957-2.648 1.515-4.262 1.613a86.458 86.458 0 01-5.287.153zm-.249-1.953a85.251 85.251 0 005.417-.15c1.221-.073 2.28-.47 3.147-1.176.801-.654 1.353-1.556 1.64-2.68.285-1.116.301-2.314.317-3.472.012-.906.025-1.98.028-3.069-.003-1.09-.016-2.163-.028-3.07-.016-1.157-.032-2.355-.317-3.47-.287-1.125-.839-2.027-1.64-2.68-.867-.708-1.926-1.104-3.147-1.178a85.336 85.336 0 00-5.412-.149 85.105 85.105 0 00-5.417.15c-1.221.073-2.28.47-3.147 1.176-.801.654-1.353 1.556-1.64 2.68-.285 1.116-.301 2.313-.317 3.472a275.91 275.91 0 00-.028 3.071c.003 1.086.016 2.16.028 3.067.016 1.158.032 2.356.317 3.471.287 1.125.839 2.027 1.64 2.68.868.707 1.926 1.104 3.147 1.178 1.72.104 3.49.153 5.412.149zm-.046-4.444A6.11 6.11 0 016.347 12.5a6.11 6.11 0 016.104-6.104 6.11 6.11 0 016.103 6.104 6.11 6.11 0 01-6.103 6.104zm0-10.253A4.155 4.155 0 008.3 12.5a4.155 4.155 0 004.15 4.15 4.155 4.155 0 004.15-4.15 4.155 4.155 0 00-4.15-4.15zm6.787-3.907a1.465 1.465 0 100 2.93 1.465 1.465 0 000-2.93z" fill="#8100E9"/></svg>