<svg width="11" height="11" fill="none" xmlns="http://www.w3.org/2000/svg"><path d="M5.5 0A5.497 5.497 0 00.73 8.238l-.71 2.2a.43.43 0 00.541.541l2.201-.708A5.494 5.494 0 005.5 11C8.54 11 11 8.54 11 5.5S8.54 0 5.5 0zm0 10.14c-.871 0-1.72-.242-2.456-.702a.43.43 0 00-.36-.045l-1.588.511.511-1.588a.43.43 0 00-.045-.36A4.628 4.628 0 01.86 5.5 4.646 4.646 0 015.5.86a4.646 4.646 0 014.64 4.64 4.646 4.646 0 01-4.64 4.64zm.537-4.64a.537.537 0 11-1.074 0 .537.537 0 011.074 0zm2.149 0a.537.537 0 11-1.075 0 .537.537 0 011.075 0zm-4.297 0a.537.537 0 11-1.075 0 .537.537 0 011.075 0z" fill="#8100E9"/></svg>