<svg width="90" height="90" fill="none" xmlns="http://www.w3.org/2000/svg"><path d="M44.772.817c11.74 0 22.78 4.587 31.082 12.917s12.875 19.404 12.875 31.184c0 11.78-4.573 22.855-12.875 31.185-8.303 8.33-19.341 12.917-31.082 12.917-11.742 0-22.78-4.588-31.083-12.917C5.386 67.773.814 56.698.814 44.918c0-11.78 4.572-22.855 12.875-31.184C21.99 5.404 33.03.817 44.772.817zm0-.817C20.045 0 0 20.11 0 44.918s20.045 44.918 44.772 44.918c24.726 0 44.77-20.11 44.77-44.918C89.543 20.111 69.499 0 44.773 0z" fill="#000"/><path d="M44.772 4.56c22.18 0 40.227 18.105 40.227 40.358 0 22.254-18.046 40.359-40.227 40.359-22.181 0-40.227-18.105-40.227-40.359C4.545 22.665 22.59 4.56 44.772 4.56zm0-2.45c-23.566 0-42.67 19.166-42.67 42.808 0 23.643 19.104 42.81 42.67 42.81 23.564 0 42.669-19.167 42.669-42.81 0-23.642-19.105-42.808-42.67-42.808z" fill="#000"/><path d="M43.221 13.774c-.129-.078-.111-.043 0 0zM18.483 28.957c0 .27.114.406.345.406.211 0 .373-.068.486-.203.114-.136.226-.346.335-.631h.396c-.364 1.06-.858 1.636-1.48 1.728a2.94 2.94 0 01-.363.018c-.143 0-.286-.03-.427-.09-.392-.168-.588-.492-.588-.975 0-.258.07-.669.212-1.235.14-.565.211-.955.211-1.17 0-.323-.114-.485-.34-.485-.227 0-.43.18-.607.54a1.788 1.788 0 00-.128.331l-.639 3.03h-1.355l.996-4.721h1.357l-.102.487c.306-.349.673-.524 1.098-.524.3 0 .55.082.75.249.199.165.297.41.297.738 0 .326-.051.694-.155 1.106l-.226.913c-.048.2-.073.362-.073.488zm6.51-.428c-.398 1.164-1.027 1.747-1.888 1.747-.554 0-.863-.288-.924-.868-.41.58-.89.867-1.435.867-.548 0-.92-.269-1.115-.807a1.922 1.922 0 01-.105-.66 4.409 4.409 0 01.262-1.483c.195-.541.476-.988.84-1.34a1.822 1.822 0 011.32-.531c.27 0 .464.044.583.135a.416.416 0 01.179.343v.07l.101-.502h1.356l-.676 3.208c-.027.107-.041.21-.041.304 0 .27.128.406.386.406.334 0 .588-.296.762-.89h.395zm-2.37-2.13a.482.482 0 00-.081-.224c-.054-.09-.168-.136-.342-.136-.174 0-.345.093-.51.28-.398.454-.648 1.102-.75 1.947-.015.13-.022.266-.022.41 0 .28.058.474.175.586a.34.34 0 00.252.1.712.712 0 00.51-.223c.154-.15.258-.352.317-.61l.451-2.13zm3.027 3.54l-.487 2.3-1.42.342 1.572-7.432h1.355l-.15.71c.312-.27.677-.405 1.097-.405.543 0 .896.261 1.062.784.058.19.086.409.086.656 0 .247-.014.496-.044.743a4.632 4.632 0 01-.148.742 4.123 4.123 0 01-.278.712 2.42 2.42 0 01-.43.605 1.94 1.94 0 01-.608.424c-.236.104-.527.155-.879.155-.35 0-.593-.111-.727-.336zm1.83-3.025c0-.522-.16-.783-.474-.783a.624.624 0 00-.338.116.99.99 0 00-.31.35l-.555 2.641c.055.145.188.218.401.218.213 0 .403-.09.573-.268.328-.35.538-.851.633-1.503.046-.29.07-.546.07-.77zm4.034 1.388c0-.282-.115-.423-.34-.423a.492.492 0 00-.277.085c-.085.056-.2.145-.345.264l-.413 1.992h-1.355l1.006-4.72h1.355l-.403 1.87.579-.597.45-.494c.293-.317.53-.54.707-.67.177-.128.38-.193.607-.193.226 0 .392.06.499.178a.66.66 0 01.158.455.62.62 0 01-.152.439.479.479 0 01-.367.163c-.23 0-.386-.048-.467-.146a.513.513 0 01-.121-.337 2.124 2.124 0 00-.478.392l-.35.387a8.09 8.09 0 01-.284.3 2.38 2.38 0 01.395-.037c.609 0 .915.277.915.83 0 .19-.026.36-.073.506-.047.148-.07.294-.07.44 0 .25.132.377.395.377.165 0 .29-.032.377-.096-.046.5-.258.815-.634.944a1.156 1.156 0 01-.39.065c-.308 0-.556-.093-.747-.282-.193-.187-.289-.442-.289-.765 0-.123.019-.29.057-.497a3.12 3.12 0 00.055-.43z" fill="#000"/><path fill-rule="evenodd" clip-rule="evenodd" d="M80.918 56.013H8.633c-.362-4.515-2.06-8.47-4.546-11.095 2.487-2.633 4.184-6.588 4.546-11.095h72.285c.354 4.507 2.058 8.462 4.538 11.095-2.48 2.624-4.184 6.58-4.538 11.095zM9.428 35.08l-.034.202a21.966 21.966 0 01-1.33 5.13 17.657 17.657 0 01-2.42 4.322l-.14.184.14.184a17.669 17.669 0 012.42 4.321 21.76 21.76 0 011.33 5.123l.034.21h70.695l.026-.21a21.765 21.765 0 011.33-5.123c.635-1.596 1.45-3.055 2.42-4.321l.14-.184-.14-.184c-.97-1.266-1.785-2.725-2.42-4.322a21.97 21.97 0 01-1.33-5.13l-.026-.202H9.428zm70.387 19.162H9.735a22.604 22.604 0 00-1.343-5.066c-.622-1.56-1.411-3-2.347-4.258.936-1.258 1.725-2.697 2.347-4.268a22.461 22.461 0 001.343-5.066h70.08c.26 1.79.715 3.487 1.336 5.066a18.685 18.685 0 002.354 4.268 18.801 18.801 0 00-2.354 4.258 22.95 22.95 0 00-1.336 5.066zm-1.946-9.508v.368h2.681v-.367h-2.68zm-68.876 0v.368h2.688v-.367H8.993z" fill="#000"/><path d="M16.945 37.522h.043c0 .034.02.08.06.142.107-.068.18-.1.217-.1.08 0 .244.003.499.015.64-.037 1.1-.057 1.377-.057.581.028 1.148.06 1.698.1v-.02l.04.02h.098c1.69.13 2.537.238 2.537.32.05 0 .119.387.198 1.163.031 0 .07.225.122.677 0 .333-.128.572-.38.722-.108.094-.448.142-1.02.142h-1.777c-.24 0-.58.006-1.017.02-.02-.014-.06-.02-.12-.02-.132.029-.2.063-.2.1v.08c.107.426.269.64.482.64h.337l.501-.08a2.3 2.3 0 00.278.022h.201c.071 0 .179-.023.317-.062.134 0 .221.204.258.62v.503c0 .253-.15.378-.456.378a3.86 3.86 0 01-.816.08.152.152 0 00-.062.022l-.04-.023c-.096.015-.15.023-.162.023a.955.955 0 00-.155-.023v.023l-.043-.023a9.241 9.241 0 00-.44-.02l-.059.1.023.262-.023.142c.31 1.495.462 2.507.462 3.042l-.022.182.022.037c0 .028-.008.042-.022.042l.022.242v.236c0 .014.006.023.017.023 0 .014-.005.02-.017.02.012.267.017.466.017.6v.34c0 .396-.014.703-.04.922.015.025.023.043.023.057a.556.556 0 01-.022.082c0 .031.008.06.022.08a137.66 137.66 0 01-.24 2.604c-.066.213-.378.321-.939.321-.759.134-1.17.2-1.238.2h-.198c-.371 0-.584-.282-.64-.842v-.563c0-.19.02-.484.059-.879a18.825 18.825 0 01-.023-.742.96.96 0 01.023-.156c-.04-.424-.06-.691-.06-.805 0-.287-.005-.821-.02-1.598a.99.99 0 00.02-.164h-.02a.114.114 0 00.02-.057c0-.546-.005-1.388-.02-2.525.148-2.075.222-3.184.222-3.323l.076-1.902a7.056 7.056 0 01-.076-.52v-.18c0-.04.025-.139.076-.301v-.361zm10.615 0l.071.017.167-.017c.085 0 .527.017 1.327.054l.13-.017c.062.011.125.017.181.017.065 0 .187-.006.366-.017.011 0 .017.005.017.017l.09-.017h.239c.277.037.419.14.419.307.06.216.09.495.09.841v.023c0 .256-.048.381-.144.381 0 .04-.128.077-.383.111-.096 0-.223-.006-.382-.017a4.704 4.704 0 01-.329.017c-.07 0-.292-.026-.66-.071a.143.143 0 00-.068.017 6.585 6.585 0 00-.567-.04c-.377 0-.615.122-.708.367-.04.105-.06.674-.06 1.7l.04.02c.83-.156 1.261-.236 1.295-.236h.037c.045 0 .099.028.161.091l-.017.18v.312c0 .278-.096.42-.292.42-.008 0-.06-.005-.147-.017-.088 0-.218.018-.4.054l-.257-.02c-.326.091-.49.288-.49.586-.01 0-.015.014-.015.037.071 1.04.108 1.692.108 1.953v.094c0 .259-.014.668-.04 1.223.037.816.068 1.714.094 2.692l-.037.819c.224-.023.422-.034.6-.034h.168a.119.119 0 00.068-.02c.014 0 .023.006.023.02.35-.049.841-.091 1.473-.128l.074.017.4-.037c.079 0 .152.054.217.165l-.014.037c.034.293.06.56.068.804a.773.773 0 00-.014.131c.06.316.09.535.09.657v.017c-.081.694-.189 1.04-.328 1.04-.297.194-.924.293-1.876.293 0 .009-.11.026-.328.057a.122.122 0 00-.057-.02 5.424 5.424 0 01-.473.037c-.199 0-.774-.025-1.732-.074a.716.716 0 01-.215.02c-.357-.042-.658-.14-.898-.293-.1 0-.19-.207-.27-.622v-.108c0-.225-.025-.444-.073-.66l.036-.657c0-.011-.005-.06-.02-.148.023-.346.037-.64.037-.878l-.017-.037a.572.572 0 00.037-.145.117.117 0 00-.02-.071l.037-.788a1.721 1.721 0 01-.017-.221l.017-.069-.037-.312.02-.185-.02-.219c.015-.097.02-.193.02-.293a.117.117 0 00-.02-.07.808.808 0 00.02-.166v-.108c0-.12.006-.258.017-.42l-.037-.222c0-.012.006-.017.02-.017a1.83 1.83 0 00-.02-.182c.015-.299.02-.464.02-.498l-.02-.125c.049-.535.088-.842.111-.915 0-.069-.006-.111-.02-.128l.037-.822c-.011-.134-.023-.199-.037-.199l.02-.037a3.336 3.336 0 01-.037-.384.222.222 0 00.037-.114c.06-.827.108-1.745.147-2.76v-.017c.02-.051.046-.264.068-.64v-.148c.156-.642.352-.964.587-.964l.329-.093c.022.011.04.017.053.017.19 0 .332-.012.42-.037a.11.11 0 00.054.02 12.796 12.796 0 011.44-.128zm5.073 0l.49.065a3.53 3.53 0 01.26-.014c.434.091.652.23.652.418 0 .034.003.051.012.051a58.8 58.8 0 00-.012 1.046v2.599a80.03 80.03 0 01-.249 3.86c-.085.771-.139 1.44-.159 2.002-.028.208-.04.395-.04.56v.148c0 .293.114.438.343.438.4-.1.695-.15.885-.15h.088c.05 0 .093.005.127.016a.676.676 0 01.147-.017h.261l2.732-.27h.028c.61.12.913.205.913.253a.271.271 0 01.042.134c-.065 1.049-.099 1.737-.099 2.058v.438c-.017.776-.077 1.166-.176 1.166-.113.076-.286.116-.518.116-.98-.11-1.522-.167-1.624-.167a.344.344 0 01-.1.017.134.134 0 01-.073-.017c-.694.08-1.235.116-1.618.116-.456-.02-.74-.031-.853-.031h-.912c-.292 0-.675-.097-1.142-.287-.349-.026-.522-.106-.522-.24-.02 0-.034-.047-.042-.15v-.591l.056-1.012v-.421c0-.509.026-1.137.071-1.885 0-.333-.008-.901-.028-1.703L31.59 46a.836.836 0 01-.017-.154l.088-2.291v-.691c0-.586.09-1.63.275-3.136.01-.486.028-.952.056-1.399-.008-.253-.011-.41-.011-.469.008-.114.023-.173.04-.173.011 0 .017.008.017.023a.273.273 0 00.099-.089l.031.017h.057c0-.034.136-.07.408-.116zm9.099-.071c.43.031.646.054.649.07l.031-.016c.278.008.422.088.43.238l.01.211c.008.219-.015.534-.072.941l.009.247a.144.144 0 01-.028.094.92.92 0 00.04.165 1.773 1.773 0 00-.015.387l.003.082c0 .009-.006.014-.017.017l.017.029.025.503c.009.236-.014.355-.068.358a4.507 4.507 0 01-.481.085c-.023-.045-.584-.048-1.68-.008l-.03.02c-.237-.023-.359-.077-.359-.162a6.23 6.23 0 01-.04-.438l.032-.1c-.037-1.1-.063-1.833-.08-2.197a2.1 2.1 0 00-.022-.131c-.006-.085.073-.13.238-.136.21-.066.422-.117.637-.16.516-.045.77-.08.77-.1zm-1.355 4.176l.034-.003c.33.083.573.123.729.117a.273.273 0 00.05-.023c.02 0 .029.006.029.017.147-.017.255-.025.326-.031l.306-.014.544-.103c.283.046.425.1.428.162a1.594 1.594 0 00-.023.26l.031.676c.003.057 0 .148-.005.276h.017l-.017.034.017.438c-.006.35-.014.602-.029.761h.017l-.017.032c.009.412.012.636.012.68a.174.174 0 00-.026.099l.017.435a.972.972 0 00-.023.13v.063c0 .065 0 .153-.005.264 0 .012.005.015.017.012-.156 1.649-.23 2.544-.224 2.686a2.54 2.54 0 01-.017.308l.009.21c-.029.102-.037.27-.026.503a.154.154 0 00-.028.1l.017.437a.995.995 0 01-.009.19.97.97 0 01.026.197l.014.37a.215.215 0 00.04.096c.02.267.034.472.04.612l-.018.005.023.029v.034c.003.054.017.167.045.335-.023.14-.068.225-.133.25 0 .035-.102.083-.303.143l-.096.005c-.032.003-.275-.042-.732-.13-.048.002-.082 0-.099-.012a2.18 2.18 0 01-.224.026l-.368.017c-.244.008-.414-.14-.507-.447-.012 0-.017-.017-.017-.05v-.018c.04-.315.053-.574.045-.779v-.048a.164.164 0 00-.02-.063c0-.011.006-.017.017-.017l-.025-.162-.037-.887-.02-.082h.017c0-.012-.006-.017-.017-.014l.011-.117-.002-.034c0-.009-.006-.011-.018-.011l.017-.035a38.34 38.34 0 00-.03-1.003 2.89 2.89 0 00.05-.78v-.016a8.93 8.93 0 00.046-.776l-.017-.035c.003-.162.014-.298.028-.409l-.014-.42c0-.075.005-.112.023-.112l-.018-.034-.002-.162c-.003-.008.002-.014.011-.017a.132.132 0 01-.014-.045l.011-.083c0-.02-.006-.031-.017-.031.006-.108.009-.188.006-.245l-.017-.432a.742.742 0 01.008-.15.102.102 0 01-.017-.046.153.153 0 00.012-.051l-.017-.028a.14.14 0 01.014-.052l-.023-.11a.686.686 0 01.009-.145 1.143 1.143 0 01-.023-.214l.014-.034c0-.011-.005-.014-.014-.011l.006-.196-.023-.55c0-.013.008-.073.023-.178l-.006-.148c0-.054.003-.136.006-.245l-.014.003a.232.232 0 00.028-.1 44.699 44.699 0 01-.017-.761c.105-.208.164-.313.178-.313zm7.92-4.105c.746 0 1.355.384 1.831 1.154.17.15.306.424.405.816.33.569.49 1.03.49 1.379.03 0 .046.116.052.352v.089c0 .395-.272.682-.814.867-.113 0-.198-.268-.255-.802a1.705 1.705 0 00-.303-.728c-.244-.304-.482-.458-.708-.458h-.241c-.215 0-.465.168-.742.51l-.375.761c-.102.236-.232.847-.39 1.837-.168.714-.253 1.359-.253 1.936v.219c0 .048-.006.11-.017.188l.017.034c0 .022-.006.034-.017.034 0 1.444.29 2.36.864 2.752 0 .1.193.241.576.423.396 0 .634-.037.711-.116.275-.216.456-.455.544-.714.088-.236.224-.748.405-1.53.114-.181.21-.27.287-.27h.612c.09 0 .153.063.187.188 0 1.129-.306 2.477-.919 4.043a3.65 3.65 0 01-.793 1.02c-.468.387-.87.623-1.204.712a2.128 2.128 0 01-.967.221h-.099c-.564 0-1.082-.242-1.556-.728-.459-.477-.745-.926-.864-1.344-.309-.884-.462-1.536-.462-1.953-.2-1.607-.303-2.568-.303-2.889 0-.082.12-.995.357-2.735.045-.611.12-1.092.221-1.444.295-.944.567-1.646.813-2.11.037-.136.323-.477.865-1.018.626-.398 1.12-.597 1.473-.597.227-.065.417-.1.573-.1zm5.657-.071c.43.031.646.054.649.07l.031-.016c.278.008.422.088.43.238l.01.211c.008.219-.015.534-.072.941l.009.247a.144.144 0 01-.028.094.92.92 0 00.04.165 1.767 1.767 0 00-.015.387l.003.082c0 .009-.006.014-.017.017l.017.029.025.503c.009.236-.014.355-.068.358a4.507 4.507 0 01-.481.085c-.023-.045-.584-.048-1.68-.008l-.03.02c-.237-.023-.359-.077-.359-.162a6.23 6.23 0 01-.04-.438l.032-.1c-.037-1.1-.063-1.833-.08-2.197a2.1 2.1 0 00-.023-.131c-.005-.085.074-.13.238-.136.21-.066.423-.117.638-.16.516-.045.77-.08.77-.1zm-1.355 4.176l.034-.003c.33.083.573.123.729.117a.273.273 0 00.05-.023c.02 0 .029.006.029.017.147-.017.255-.025.326-.031l.306-.014.544-.103c.283.046.425.1.428.162a1.582 1.582 0 00-.023.26l.031.676c.003.057 0 .148-.005.276h.017l-.017.034.017.438c-.006.35-.014.602-.029.761h.017l-.017.032c.009.412.012.636.012.68a.174.174 0 00-.026.099l.017.435a.972.972 0 00-.023.13v.063c0 .065 0 .153-.005.264 0 .012.005.015.017.012-.156 1.649-.23 2.544-.224 2.686a2.54 2.54 0 01-.017.308l.008.21c-.028.102-.036.27-.025.503a.154.154 0 00-.028.1l.017.437a.995.995 0 01-.009.19.964.964 0 01.026.197l.014.37a.215.215 0 00.04.096c.02.267.034.472.04.612l-.018.005.023.029v.034c.003.054.017.167.045.335-.023.14-.068.225-.133.25 0 .035-.102.083-.303.143l-.096.005c-.032.003-.276-.042-.732-.13-.048.002-.082 0-.099-.012a2.18 2.18 0 01-.224.026l-.368.017c-.244.008-.414-.14-.507-.447-.012 0-.017-.017-.017-.05v-.018c.04-.315.053-.574.045-.779v-.048a.162.162 0 00-.02-.063c0-.011.006-.017.017-.017l-.025-.162-.037-.887-.02-.082h.017c0-.012-.006-.017-.017-.014l.011-.117-.002-.034c0-.009-.006-.011-.017-.011l.017-.035a38.34 38.34 0 00-.032-1.003c.048-.202.066-.46.051-.78v-.016c.017-.105.032-.364.046-.776l-.017-.035c.003-.162.014-.298.028-.409l-.014-.42c0-.075.005-.112.023-.112l-.017-.034-.003-.162c-.003-.008.002-.014.011-.017a.133.133 0 01-.014-.045l.011-.083c0-.02-.005-.031-.017-.031.006-.108.009-.188.006-.245l-.017-.432a.742.742 0 01.008-.15.102.102 0 01-.017-.046.153.153 0 00.012-.051l-.017-.028a.14.14 0 01.014-.052l-.023-.11a.68.68 0 01.009-.145 1.143 1.143 0 01-.023-.214l.014-.034c0-.011-.006-.014-.014-.011l.006-.196-.023-.55c0-.013.008-.073.023-.178l-.006-.148c0-.054.003-.136.006-.245l-.014.003a.232.232 0 00.028-.1 43.488 43.488 0 01-.017-.761c.105-.208.164-.313.178-.313zm8.547-4.105c.615.011 1.17.017 1.669.017.235 0 .351.13.351.39.032.582.1 1.165.204 1.75v.211c0 .273-.119.41-.357.41h-.107c-.8-.083-1.23-.126-1.295-.126-.105 0-.46.037-1.063.108h-.357c-.07 0-.108.185-.108.55.012.684.017 1.12.017 1.307a113.366 113.366 0 00-.034 2.038v.032c0 .238.017.665.046 1.276 0 1.467-.102 3.025-.306 4.671-.012.165-.017.27-.017.319 0 .088.025.62.079 1.595 0 .202-.125.324-.369.37-.597-.132-1.048-.197-1.346-.197a3.086 3.086 0 01-.49-.173c-.042 0-.076-.262-.107-.78v-.124c0-.725.008-1.482.028-2.266-.009-.154-.017-.23-.028-.23 0-.012.002-.058.01-.143 0-.261-.002-.568-.01-.918.022-1.413.048-2.218.073-2.408l-.014-.071c.02-.208.031-.472.031-.796V43.5l.017-.21h-.017l.017-.035c.071-1.694.153-2.672.247-2.94v-.284c-.564-.068-.95-.15-1.16-.244-.552-.131-.83-.262-.83-.393-.03-.056-.056-.187-.079-.386l.017-.088v-.18c0-.625.128-.935.386-.935.144.009.266.014.368.014h.343c.161 0 .76-.093 1.788-.281h.694c.054 0 .1.006.136.017a.723.723 0 01.125-.017c.425 0 .91-.006 1.448-.017zm8.844-.125c.315 0 .592.372.83 1.117.066.23.165.924.298 2.081.133.526.266 1.868.4 4.032.297 1.148.447 1.893.447 2.231.156.896.25 1.561.284 1.999 0 .037.087.336.263.901.068.313.19.74.366 1.282a.61.61 0 01.017.165c-.085.23-.213.387-.383.467-.173.153-.521.304-1.046.452-.824.21-1.317.315-1.476.315h-.416c-.409-.057-.615-.145-.615-.267-.074 0-.19-.572-.349-1.714-.074-.245-.136-.802-.181-1.666-.1-.344-.216-1.59-.349-3.733 0-.1-.045-.572-.133-1.416v-.515c-.964.123-1.445.228-1.445.316l-.53 2.615c0 .055-.105.495-.318 1.317l-.181.864c-.045.364-.167.941-.366 1.734-.178.78-.266 1.245-.266 1.4-.164.522-.292.78-.38.78l-.864.186-.15-.017v.017c-.221-.032-.332-.103-.332-.216v-.069c0-.15.034-.52.1-1.114a.132.132 0 01-.018-.051c.145-.773.216-1.226.216-1.35l-.014-.032c.13-.591.286-1.359.465-2.3.11-.529.252-1.086.43-1.666.145-.822.42-1.916.83-3.28.244-.6.4-1.002.465-1.2.054-.18.102-.458.15-.834.25-.926.454-1.56.612-1.899.193-.213.465-.392.817-.531.249-.091.98-.185 2.19-.285.011-.011.221-.05.632-.116zm-3.304 4.68l.031.016h.017a.172.172 0 00.085-.017c.116.023.32.035.612.035h.499a.807.807 0 00.017-.134c0-.225.011-.435.034-.631l-.051-.634a.668.668 0 00.068-.2c0-.196-.139-.355-.417-.483h-.05c-.315 0-.553.484-.712 1.45-.09.361-.133.563-.133.597z" fill="#FEFEFE"/><path fill-rule="evenodd" clip-rule="evenodd" d="M45.056 33.823H8.633c-.362 4.507-2.06 8.461-4.546 11.095 2.487 2.624 4.184 6.58 4.546 11.095h72.285c.354-4.515 2.058-8.47 4.538-11.095-2.48-2.634-4.184-6.588-4.538-11.095H45.056zM9.582 35.08h70.541l.025.202a21.97 21.97 0 001.33 5.13c.636 1.597 1.451 3.056 2.42 4.322l.142.184-.142.184c-.969 1.266-1.784 2.725-2.42 4.322a21.763 21.763 0 00-1.33 5.122l-.025.21H9.428l-.034-.21a21.76 21.76 0 00-1.33-5.123c-.628-1.596-1.444-3.055-2.42-4.32l-.14-.185.14-.184a17.657 17.657 0 002.42-4.322 21.967 21.967 0 001.33-5.13l.034-.202h.154z" fill="#000"/><path d="M59.212 27.246a2.38 2.38 0 01.395-.036c.34 0 .574.076.703.228.129.153.193.369.193.649 0 .072-.006.146-.019.22l-.04.227a3.103 3.103 0 00-.056.478c0 .234.126.35.377.35.19 0 .336-.065.44-.197.101-.133.216-.345.341-.636h.395c-.395 1.164-.966 1.747-1.714 1.747-.383 0-.668-.095-.855-.284-.187-.189-.28-.443-.28-.763 0-.157.018-.32.056-.486.036-.167.055-.305.055-.412 0-.303-.12-.452-.36-.452a.537.537 0 00-.33.129l-.272.22-.412 1.992h-1.355l1.005-4.72h1.355l-.403 1.87.588-.607.45-.494c.297-.32.534-.541.708-.669.174-.122.375-.184.599-.184.226 0 .39.06.497.178.105.118.159.27.159.452s-.052.33-.153.44c-.1.11-.247.166-.44.166s-.328-.052-.405-.156c-.074-.106-.11-.183-.11-.236v-.091a2.124 2.124 0 00-.478.391l-.35.387a8.175 8.175 0 01-.284.3zm7.678 1.283c-.398 1.164-1.028 1.747-1.889 1.747-.553 0-.862-.288-.923-.867-.41.579-.89.867-1.436.867-.547 0-.919-.27-1.115-.808a1.918 1.918 0 01-.105-.66 4.41 4.41 0 01.262-1.483c.196-.541.477-.988.84-1.34.365-.355.805-.53 1.32-.53.27 0 .464.043.583.134.12.092.18.205.18.343v.07l.101-.502h1.355l-.676 3.208a1.27 1.27 0 00-.04.304c0 .27.128.406.385.406.334 0 .588-.296.763-.89h.395zm-2.37-2.13a.482.482 0 00-.082-.224c-.053-.09-.168-.136-.342-.136-.174 0-.345.093-.51.28-.398.454-.647 1.102-.75 1.947a3.435 3.435 0 00-.021.41c0 .28.058.474.174.586.068.068.152.1.253.1a.712.712 0 00.51-.222c.153-.15.258-.353.316-.611l.452-2.13zm5.577 2.84c.052.144.16.217.324.217a.833.833 0 00.428-.107c.12-.071.23-.167.328-.29.181-.228.326-.541.434-.938.11-.398.163-.8.163-1.207 0-.522-.155-.783-.469-.783-.254 0-.47.155-.652.465l-.556 2.643zm-.638-2.882c-.038-.212-.172-.317-.408-.317-.234 0-.458.155-.673.47a3.24 3.24 0 00-.45.99c-.119.458-.179.84-.179 1.144 0 .322.062.533.184.63a.31.31 0 00.226.098.683.683 0 00.279-.069c.243-.11.417-.315.524-.614l.497-2.332zm-1.329 6.224l.625-2.822c-.322.345-.684.517-1.086.517-.403 0-.721-.122-.956-.364-.234-.244-.352-.628-.352-1.153 0-.707.198-1.415.593-2.125.187-.341.44-.623.756-.846a1.815 1.815 0 011.073-.334c.514 0 .772.171.772.516l.469-2.171 1.3-.19-.51 2.25a1.615 1.615 0 011.103-.405c.765 0 1.15.482 1.15 1.448 0 .964-.185 1.748-.553 2.35-.414.682-1.014 1.024-1.8 1.024-.378 0-.632-.112-.764-.337l-.49 2.3-1.33.342zm6.568-3.983c0 .523.199.784.597.784.174 0 .364-.05.567-.153.203-.1.38-.219.531-.35-.17.93-.71 1.397-1.626 1.397-.443 0-.795-.117-1.062-.348-.267-.233-.4-.615-.4-1.15 0-.72.182-1.415.547-2.089.278-.513.66-.88 1.139-1.096.248-.119.507-.177.772-.177.436 0 .73.082.887.247.157.164.234.384.234.657 0 .54-.215.999-.644 1.373a2.485 2.485 0 01-1.52.619 1.762 1.762 0 00-.022.286zm1.46-2.343c0-.227-.077-.34-.234-.34-.296.011-.583.359-.86 1.042-.115.291-.21.593-.28.903.362-.012.682-.176.958-.49.278-.316.416-.687.416-1.115z" fill="#000"/><path fill-rule="evenodd" clip-rule="evenodd" d="M53.978 30.164H35.564v-7.893h18.414v7.893zm-1.712-9.042H37.279a3.83 3.83 0 01-3.822-3.836 3.829 3.829 0 013.822-3.835c.958 0 1.835.355 2.507.94a5.208 5.208 0 014.985-3.716 5.21 5.21 0 014.986 3.716 3.802 3.802 0 012.509-.94 3.828 3.828 0 013.82 3.835 3.829 3.829 0 01-3.82 3.836z" fill="#000"/><path d="M57.365 69.253c-.287.96-.968 1.659-1.889 2.022-.585.233-1.852.631-2.42.182-.083-.141.1-.197.202-.205.528-.04 1.546-.202 2.075-.895.529-.696.69-1.427.323-1.878 0 0-.203.572-.773.49-.569-.082-.933-.287-1.828.284 0 0 .246-.938-.162-1.386 0 0-1.016.326-1.708.898-.692.573-1.546.692-2.278.122-.731-.572-1.22-1.347-1.34-1.632h-.855c.607 2.083 3.089 5.63 7.36 5.344 4.266-.286 5.641-4.182 4.106-5.914-.976-1.1-2.522-.49-2.522-.49s2.522.325 1.71 3.058zm-11.29-2.487h1.91v-.898h-1.91c.048.142.08.29.08.449 0 .16-.032.309-.08.45zm-.549 13.88c.163-.564-.055-1.14-.055-1.14s.434.325.707.488c0 0 .05-.325.27-.817.214-.485.54-3.333 0-4.855-.543-1.524-.759-2.285-1.03-3.209-.273-.927-.325-1.417-.056-1.469.271-.055.38.488.543 1.142.16.652 1.06 3.428 1.626 4.46.868 1.576 2.386 1.901 2.493 2.665 0 0 .327-.817.166-1.305-.166-.492-.273-.871.486-.492.758.383 2.222.6 3.252-.38 1.028-.98-.053-2.554-.053-2.554s.053 1.469-1.247 1.575c-1.303.11-2.767-.054-4.39-1.849-1.628-1.793-2.388-4.515-2.605-4.896 0 0-.428.111-.65.111h-.423c-.224 0-.65-.11-.65-.11-.217.38-.977 3.102-2.601 4.895-1.628 1.795-3.091 1.958-4.394 1.849-1.3-.106-1.247-1.575-1.247-1.575s-1.082 1.575-.054 2.555c1.031.98 2.495.762 3.252.38.76-.38.653 0 .49.49-.162.489.163 1.306.163 1.306.108-.764 1.625-1.09 2.49-2.665.571-1.032 1.467-3.808 1.629-4.46.163-.654.272-1.197.545-1.142.267.052.214.542-.058 1.469-.272.924-.487 1.685-1.03 3.21-.542 1.521-.216 4.369 0 4.854.22.492.27.817.27.817.273-.163.706-.489.706-.489s-.233.577-.052 1.141c.149.47.632.73.795 1.385h.01c.162-.654.565-.913.703-1.385zm-2.058-13.88c-.046-.14-.08-.29-.08-.45 0-.157.034-.306.08-.448H41.56v.898h1.908zm1.305.447c.494 0 .892-.4.892-.896a.894.894 0 10-1.787 0c0 .496.398.896.895.896zm4.018-5.32c.65-.526 1.487-.676 2.49-.442.585.137.97.484 1.143 1.037l.003.01a1.263 1.263 0 00-.349-.056 1.22 1.22 0 00-1.217 1.224 1.214 1.214 0 002.236.67c.178-.195.306-.492.362-.866.178-1.21-.437-2.623-1.963-2.973-1.29-.301-2.439-.08-3.318.64-1.273 1.034-1.694 2.847-1.67 4.086l.978-.019c-.021-1.017.309-2.496 1.305-3.31zm-5.959 5.362h-.854c-.122.285-.61 1.06-1.342 1.632-.733.57-1.586.45-2.277-.122-.69-.572-1.708-.898-1.708-.898-.408.448-.162 1.386-.162 1.386-.895-.572-1.262-.366-1.832-.285-.567.083-.771-.489-.771-.489-.364.45-.201 1.182.324 1.878.53.693 1.546.855 2.073.895.106.008.286.064.206.205-.57.449-1.838.051-2.424-.182-.92-.363-1.601-1.061-1.888-2.022-.812-2.733 1.709-3.059 1.709-3.059s-1.545-.61-2.52.491c-1.537 1.732-.163 5.628 4.106 5.914 4.271.286 6.75-3.261 7.36-5.344zm-1.468-6.119c-.88-.719-2.028-.94-3.32-.64-1.524.351-2.14 1.764-1.961 2.974.056.374.185.67.363.867.219.333.592.554 1.017.554a1.225 1.225 0 000-2.45 1.25 1.25 0 00-.348.056c.002 0 .003-.007.005-.009.17-.553.557-.9 1.145-1.037 1.001-.234 1.837-.084 2.484.443.998.814 1.328 2.293 1.31 3.31l.977.019c.023-1.239-.4-3.052-1.672-4.087z" fill="#000"/></svg>