<svg width="25" height="25" fill="none" xmlns="http://www.w3.org/2000/svg"><g clip-path="url(#clip0)"><path d="M.432 11.662l6.114 3.047a.784.784 0 00.741-.024l5.442-3.163-3.294 2.919a.782.782 0 00-.263.585v7.11c0 .75.957 1.065 1.406.47l2.643-3.514 6.535 3.722a.781.781 0 001.152-.526l4.076-20.312a.781.781 0 00-1.05-.881L.497 10.235c-.63.246-.67 1.127-.065 1.428zm22.74-8.592L19.59 20.92l-6.193-3.526a.783.783 0 00-1.012.21l-1.65 2.194v-4.42l8.907-7.893c.705-.624-.106-1.733-.91-1.26L6.866 13.123 2.708 11.05l20.464-7.98z" fill="#2D2C35"/></g><defs><clipPath id="clip0"><path fill="#fff" d="M0 0h25v25H0z"/></clipPath></defs></svg>