<svg width="25" height="25" fill="none" xmlns="http://www.w3.org/2000/svg"><g clip-path="url(#clip0)"><path d="M.432 11.663l6.114 3.047a.783.783 0 00.742-.024l5.441-3.164-3.293 2.919a.782.782 0 00-.264.585v7.11c0 .75.957 1.065 1.406.47l2.643-3.514 6.535 3.722a.781.781 0 001.152-.525l4.076-20.313a.781.781 0 00-1.05-.881L.497 10.235c-.63.247-.67 1.127-.065 1.428zm22.74-8.593L19.59 20.921l-6.193-3.527a.783.783 0 00-1.011.21l-1.651 2.194v-4.42l8.907-7.892c.705-.624-.105-1.734-.91-1.26L6.866 13.122 2.707 11.05l20.465-7.98z" fill="#8100E9"/></g><defs><clipPath id="clip0"><path fill="#fff" d="M0 0h25v25H0z"/></clipPath></defs></svg>