<svg width="25" height="25" fill="none" xmlns="http://www.w3.org/2000/svg"><g clip-path="url(#clip0)" fill="#FEFEFE"><path d="M6.592 21.227c-.032 1.526-.213 3.27 1.116 3.69 1.302.425 2.057-.622 3.755-2.747 6.331.432 11.92-1.348 12.668-7.73.67-5.674-.196-9.92-2.425-11.939C18.44-.63 7.802-1.069 3.91 2.653c-1.605 1.668-2.386 4.115-2.46 7.701-.06 2.93-.18 8.919 5.141 10.873zm-3.578-10.84c.064-3.17.706-5.284 1.997-6.628C8.26.653 17.896 1.013 20.64 3.646c1.832 1.66 2.54 5.527 1.938 10.611-.545 4.663-3.547 5.459-4.678 5.758-2.34.617-4.572.752-6.712.566-.564-.06-.786.473-.99.667-1.02 1.226-1.756 2.111-1.947 2.23-.14-.21-.118-1.2-.102-1.996-.05-.358.27-1.349-.566-1.573-4.735-1.398-4.627-6.682-4.57-9.522z"/><path d="M6.002 8.312c.834 1.664 1.648 4.604 4.772 7.162 1.084.894 4.33 2.956 5.6 2.956 1.817 0 3.89-2.856 2.372-4.13-.684-.668-1.645-1.325-2.262-1.687h-.002c-1.6-.926-2.478.778-2.582.844-2.346 2.1-5.236-1.548-3.21-3.312.248-.31 1.734-1.026.853-2.655-.782-1.414-1.297-1.9-1.589-2.304-1.539-1.92-4.868 1.27-3.952 3.126zm9.556 5.597c.107.067 1.032.472 2.138 1.548.14.118-.797 1.48-1.394 1.402-.118-.053-.969-.256-2.797-1.374 1.736-.59 1.72-1.513 2.053-1.576zM8.614 6.175c.065-.034.098-.036.095-.045.3.418.748.816 1.463 2.109.19.35-.278.487-.58.795a3.44 3.44 0 00-.94 1.337c-.64-1.207-.926-2.077-1.218-2.686-.116-.554.685-1.227 1.18-1.51z"/><path d="M13.346 8.906c.012.001 1.145.146 1.348 1.366.172 1.035 1.71.757 1.54-.256-.315-1.895-1.91-2.57-2.71-2.662-1.027-.115-1.203 1.433-.178 1.552z"/><path d="M12.533 5.538c.017 0 2.477-.044 4.078 1.668 1.58 1.692 1.232 4.151 1.229 4.173-.16 1.014 1.38 1.283 1.543.243.02-.13.48-3.225-1.63-5.483-2.095-2.242-5.142-2.172-5.268-2.164-1.068.035-.939 1.644.048 1.563z"/></g><defs><clipPath id="clip0"><path fill="#fff" d="M0 0h25v25H0z"/></clipPath></defs></svg>