<svg width="25" height="25" fill="none" xmlns="http://www.w3.org/2000/svg"><g clip-path="url(#clip0)" fill="#8100E9"><path d="M6.592 21.227c-.033 1.526-.213 3.27 1.115 3.69 1.302.424 2.058-.622 3.756-2.747 6.33.432 11.92-1.348 12.667-7.73.67-5.675-.196-9.92-2.424-11.94C18.44-.63 7.802-1.068 3.908 2.654c-1.603 1.666-2.384 4.114-2.457 7.7-.06 2.93-.18 8.919 5.14 10.873zm-3.578-10.84c.064-3.17.706-5.284 1.996-6.628C8.261.653 17.896 1.012 20.64 3.646c1.833 1.659 2.54 5.527 1.94 10.611-.547 4.663-3.549 5.458-4.679 5.757-2.34.618-4.572.753-6.712.567-.564-.06-.786.473-.991.667-1.02 1.226-1.755 2.111-1.946 2.23-.14-.21-.119-1.2-.102-1.996-.051-.358.27-1.349-.567-1.573-4.734-1.398-4.627-6.682-4.57-9.523z"/><path d="M6.001 8.313c.835 1.663 1.648 4.603 4.772 7.161 1.085.894 4.33 2.956 5.601 2.956 1.816 0 3.89-2.856 2.371-4.13-.683-.668-1.645-1.325-2.261-1.686l-.002-.001c-1.601-.926-2.478.778-2.583.844-2.345 2.1-5.235-1.548-3.21-3.312.249-.31 1.734-1.026.853-2.655-.781-1.414-1.297-1.9-1.588-2.303C8.415 3.266 5.086 6.457 6 8.313zm9.557 5.596c.106.067 1.032.472 2.137 1.548.14.118-.797 1.48-1.393 1.402-.118-.053-.97-.256-2.797-1.374 1.735-.59 1.72-1.513 2.053-1.575zM8.614 6.175c.065-.034.098-.036.095-.045.3.418.748.816 1.462 2.109.19.35-.278.487-.58.795a3.44 3.44 0 00-.94 1.337c-.64-1.207-.926-2.077-1.217-2.686-.117-.554.684-1.227 1.18-1.51z"/><path d="M13.346 8.906c.012.001 1.145.146 1.348 1.366.172 1.035 1.71.757 1.541-.256-.316-1.895-1.91-2.57-2.711-2.662-1.026-.115-1.203 1.434-.178 1.552z"/><path d="M12.532 5.538c.018 0 2.477-.044 4.078 1.668 1.581 1.692 1.233 4.151 1.23 4.173-.16 1.014 1.38 1.283 1.542.243.02-.13.48-3.225-1.63-5.483-2.095-2.242-5.142-2.172-5.268-2.164-1.068.036-.938 1.644.048 1.563z"/></g><defs><clipPath id="clip0"><path fill="#fff" d="M0 0h25v25H0z"/></clipPath></defs></svg>