<svg width="25" height="25" fill="none" xmlns="http://www.w3.org/2000/svg"><g clip-path="url(#clip0)" fill="#8100E9"><path d="M21.45 3.55A12.043 12.043 0 0012.876 0h-.002c-1.601 0-3.162.31-4.639.922a12.063 12.063 0 00-3.932 2.629 12.044 12.044 0 00-3.551 8.572c0 1.932.466 3.85 1.349 5.56L.064 23.506c-.144.411-.042.857.266 1.165a1.114 1.114 0 001.165.266l5.821-2.038a12.16 12.16 0 005.56 1.35c3.239 0 6.283-1.262 8.573-3.552A12.044 12.044 0 0025 12.124c0-3.239-1.26-6.283-3.55-8.573zm-1.038 16.11a10.587 10.587 0 01-7.535 3.12c-1.742 0-3.472-.43-5.003-1.245a1.13 1.13 0 00-.901-.07l-5.29 1.851 1.852-5.289a1.13 1.13 0 00-.07-.9 10.684 10.684 0 01-1.246-5.003c0-2.847 1.109-5.523 3.122-7.536a10.588 10.588 0 017.535-3.122c2.847 0 5.523 1.109 7.536 3.122a10.587 10.587 0 013.122 7.535c0 2.847-1.109 5.524-3.122 7.536z"/><path d="M17.382 13.207a1.432 1.432 0 00-2.023 0l-.61.61a8.88 8.88 0 01-3.566-3.566l.61-.61a1.432 1.432 0 000-2.023l-1.644-1.644a1.432 1.432 0 00-2.023 0L6.811 7.29c-.753.754-.79 2.048-.106 3.647.595 1.387 1.684 2.912 3.065 4.294 1.382 1.381 2.907 2.47 4.294 3.064.76.326 1.45.488 2.047.488.66 0 1.204-.198 1.6-.593l1.314-1.316c.27-.27.42-.629.42-1.01a1.42 1.42 0 00-.42-1.012l-1.643-1.644zm-.708 3.945c-.215.215-.876.29-2.032-.205-1.22-.523-2.582-1.501-3.835-2.754-1.253-1.253-2.23-2.615-2.754-3.835-.495-1.156-.42-1.817-.205-2.032l1.29-1.29L10.73 8.63l-.764.763a1.119 1.119 0 00-.207 1.303 10.344 10.344 0 004.544 4.544c.434.221.957.138 1.303-.208l.763-.763 1.593 1.593-1.29 1.29z"/></g><defs><clipPath id="clip0"><path fill="#fff" d="M0 0h25v25H0z"/></clipPath></defs></svg>